<!-- <svg xmlns="http://www.w3.org/2000/svg" xmlns:xlink="http://www.w3.org/1999/xlink" version="1.1" width="600" height="600" viewBox="0 0 600 600" xml:space="preserve">
<desc>Created with Fabric.js 4.6.0</desc>
<defs>
</defs>
<g transform="matrix(3.51 0 0 3.51 165.28 165.28)" id="iF1LkKT13ep-EmM4EUdSh"  >
<path style="stroke: rgb(197,180,99); stroke-width: 0; stroke-dasharray: none; stroke-linecap: butt; stroke-dashoffset: 0; stroke-linejoin: miter; stroke-miterlimit: 4; fill: rgb(216,87,118); fill-rule: nonzero; opacity: 1;" vector-effect="non-scaling-stroke"  transform=" translate(0, 0)" d="M -47.02194 -47.02194 L 47.021950000000004 -47.02194 L 47.021950000000004 47.021950000000004 L -47.02194 47.021950000000004 z" stroke-linecap="round" />
</g>
</svg>

<?xml version="1.0" standalone="no"?> -->

<svg version="1.1" xmlns="http://www.w3.org/2000/svg" width="600" height="600" viewBox="0 0 1 1" id="experiment-svg-element">

  

  <rect x="0" y="0" width="1000000" height="1000000" stroke="black" fill="yellow" stroke-width="0.5"/>
  <rect x="0" y="0" width="1000" height="1000" stroke="black" fill="pink" stroke-width="0"/>
  <rect x="0" y="0" width="1" height="1" stroke="black" fill="blue" stroke-width="0.02"/>

  <!-- <rect x="0" y="0" width="400" height="400" stroke="black" fill="RGBA(255,101,80,0.3)" stroke-width="0.5"/> -->

  <!-- <rect x="60" y="10" rx="10" ry="10" width="30" height="30" stroke="black" fill="transparent" stroke-width="5"/>

  <circle cx="25" cy="75" r="20" stroke="red" fill="transparent" stroke-width="5"/>
  <ellipse cx="75" cy="75" rx="20" ry="5" stroke="red" fill="transparent" stroke-width="5"/>

  <line x1="10" x2="50" y1="110" y2="150" stroke="orange" stroke-width="5"/>
  <polyline points="60 110 65 120 70 115 75 130 80 125 85 140 90 135 95 150 100 145"
      stroke="orange" fill="transparent" stroke-width="5"/>

  <polygon points="50 160 55 180 70 180 60 190 65 205 50 195 35 205 40 190 30 180 45 180"
      stroke="green" fill="transparent" stroke-width="5"/>

  <path d="M20,230 Q40,205 50,230 T90,230" fill="none" stroke="blue" stroke-width="5"/> -->
</svg>