<!-- <svg xmlns="http://www.w3.org/2000/svg" xmlns:xlink="http://www.w3.org/1999/xlink" version="1.1" width="600" height="600" viewBox="0 0 600 600" xml:space="preserve"> -->
<!-- <svg xmlns="http://www.w3.org/2000/svg" xmlns:xlink="http://www.w3.org/1999/xlink" version="1.1" width="100" height="100" viewBox="0 0 600 600" xml:space="preserve"> -->
<svg xmlns="http://www.w3.org/2000/svg" xmlns:xlink="http://www.w3.org/1999/xlink" version="1.1" width="600" height="600" viewBox="0 0 500 500" xml:space="preserve">
<desc>Created with Fabric.js 4.6.0</desc>
<defs>
</defs>
<g transform="matrix(6.37 0 0 6.37 300 300)" id="Tk7E7SUmL2zl1ZByvybA6"  >
<path style="stroke: rgb(99,224,73); stroke-width: 0; stroke-dasharray: none; stroke-linecap: butt; stroke-dashoffset: 0; stroke-linejoin: miter; stroke-miterlimit: 4; fill: rgb(126,132,152); fill-rule: nonzero; opacity: 1;" vector-effect="non-scaling-stroke"  transform=" translate(0, 0)" d="M -47.02194 -47.02194 L 47.021950000000004 -47.02194 L 47.021950000000004 47.021950000000004 L -47.02194 47.021950000000004 z" stroke-linecap="round" />
</g>
<g transform="matrix(1 0 0 1 464.11 248.49)" id="BGNHtCuqypN8kmBiXzOSm"  >
<path style="stroke: rgb(106,204,61); stroke-width: 0; stroke-dasharray: none; stroke-linecap: butt; stroke-dashoffset: 0; stroke-linejoin: miter; stroke-miterlimit: 4; fill: rgb(255,164,111); fill-rule: nonzero; opacity: 1;" vector-effect="non-scaling-stroke"  transform=" translate(-44.72, -42.53)" d="M 44.72053 0 L 57.987159999999996 28.762 L 89.44106 32.49137 L 66.18638999999999 53.99663 L 72.35933999999999 85.0635 L 44.720539999999986 69.59248000000001 L 17.081739999999986 85.0635 L 23.254689999999986 53.99663 L 0.00001999999998503199 32.49137 L 31.453919999999986 28.762000000000004 z" stroke-linecap="round" />
</g>
<g transform="matrix(1.44 0 0 1.44 196.68 122.15)" id="eKwklLlwnYXr3YxqsmrL7"  >
<path style="stroke: rgb(106,204,61); stroke-width: 0; stroke-dasharray: none; stroke-linecap: butt; stroke-dashoffset: 0; stroke-linejoin: miter; stroke-miterlimit: 4; fill: rgb(68,224,242); fill-rule: nonzero; opacity: 1;" vector-effect="non-scaling-stroke"  transform=" translate(-44.72, -42.53)" d="M 44.72053 0 L 57.987159999999996 28.762 L 89.44106 32.49137 L 66.18638999999999 53.99663 L 72.35933999999999 85.0635 L 44.720539999999986 69.59248000000001 L 17.081739999999986 85.0635 L 23.254689999999986 53.99663 L 0.00001999999998503199 32.49137 L 31.453919999999986 28.762000000000004 z" stroke-linecap="round" />
</g>
<g transform="matrix(0.8 0 0 0.8 217.78 286.72)" id="MHF15xMXCpeOKvDLPO-eG"  >
<path style="stroke: rgb(106,204,61); stroke-width: 0; stroke-dasharray: none; stroke-linecap: butt; stroke-dashoffset: 0; stroke-linejoin: miter; stroke-miterlimit: 4; fill: rgb(255,247,99); fill-rule: nonzero; opacity: 1;" vector-effect="non-scaling-stroke"  transform=" translate(-44.72, -42.53)" d="M 44.72053 0 L 57.987159999999996 28.762 L 89.44106 32.49137 L 66.18638999999999 53.99663 L 72.35933999999999 85.0635 L 44.720539999999986 69.59248000000001 L 17.081739999999986 85.0635 L 23.254689999999986 53.99663 L 0.00001999999998503199 32.49137 L 31.453919999999986 28.762000000000004 z" stroke-linecap="round" />
</g>
<g transform="matrix(2.09 0 0 2.09 347.01 465.17)" id="fKuO97PoMB50_1RW36A4O"  >
<path style="stroke: rgb(106,204,61); stroke-width: 0; stroke-dasharray: none; stroke-linecap: butt; stroke-dashoffset: 0; stroke-linejoin: miter; stroke-miterlimit: 4; fill: rgb(247,100,188); fill-rule: nonzero; opacity: 1;" vector-effect="non-scaling-stroke"  transform=" translate(-44.72, -42.53)" d="M 44.72053 0 L 57.987159999999996 28.762 L 89.44106 32.49137 L 66.18638999999999 53.99663 L 72.35933999999999 85.0635 L 44.720539999999986 69.59248000000001 L 17.081739999999986 85.0635 L 23.254689999999986 53.99663 L 0.00001999999998503199 32.49137 L 31.453919999999986 28.762000000000004 z" stroke-linecap="round" />
</g>
</svg>